<svg width="49" height="49" viewBox="0 0 49 49" fill="none" xmlns="http://www.w3.org/2000/svg">
<path fill-rule="evenodd" clip-rule="evenodd" d="M27.5704 45.2119C38.9195 43.2731 46.5482 32.5012 44.6094 21.152C42.6706 9.80283 31.8986 2.17419 20.5495 4.11296C9.20031 6.05173 1.57168 16.8237 3.51045 28.1729C4.17006 32.0341 5.85214 35.4647 8.23155 38.2344C8.23444 38.2122 8.24557 38.1955 8.26569 38.1848C8.36646 38.1313 9.25276 37.7222 10.5864 37.1065C15.3727 34.8971 25.9211 30.0277 26.6011 29.3906C27.4707 28.5759 26.1615 20.1205 24.8171 13.0425C26.5947 11.4722 29.0592 10.3195 31.6728 9.87299C33.633 9.53813 33.9647 11.4798 33.9647 11.4798L36.0428 25.6128C35.9444 28.6615 34.3672 30.4743 28.3828 33.9156L12.1997 41.8071C16.5243 44.7992 21.9772 46.1674 27.5704 45.2119Z" fill="url(#paint0_linear_1_12)"/>
<defs>
<linearGradient id="paint0_linear_1_12" x1="-11.2923" y1="-17.003" x2="42.2841" y2="42.805" gradientUnits="userSpaceOnUse">
<stop stop-color="#4D0052"/>
<stop offset="1" stop-color="#F16A6F"/>
</linearGradient>
</defs>
</svg>
