<svg width="80" height="80" viewBox="0 0 80 80" fill="none" xmlns="http://www.w3.org/2000/svg">
  <defs>
    <linearGradient id="verifiedGrad" x1="0%" y1="0%" x2="100%" y2="100%">
      <stop offset="0%" stop-color="#4D0052"/>
      <stop offset="100%" stop-color="#F16A6F"/>
    </linearGradient>
  </defs>

  <!-- Badge/seal shape -->
  <path d="M40 10 L48 18 L58 15 L60 25 L70 28 L68 38 L73 46 L65 52 L65 62 L55 60 L48 68 L40 62 L32 68 L25 60 L15 62 L15 52 L7 46 L12 38 L10 28 L20 25 L22 15 L32 18 Z"
        fill="url(#verifiedGrad)" opacity="0.2"/>

  <circle cx="40" cy="40" r="20" fill="url(#verifiedGrad)" opacity="0.9"/>

  <!-- Star in center -->
  <path d="M40 28 L42.5 35 L50 36 L45 41 L46.5 48.5 L40 45 L33.5 48.5 L35 41 L30 36 L37.5 35 Z"
        fill="white"/>
</svg>
